PathFileType	4	(X/Y/Z)	s01c0101.trc
DataRate	CameraRate	NumFrames	NumMarkers	Units	OrigDataRate	OrigDataStartFrame	OrigNumFrames
200	200	5	47	mm	200	250	2000
Frame#	Time	racr			lacr			c7			jug			rlel			rdr			llel			ldr			s2			lic			ric			lasi			rasi			rpsi			lpsi			rgt			lgt			rth1			rth2			rth3			rth4			rlfc			rsh1			rsh2			rsh3			rsh4			rlmal			rmmal			rcal			rtoe			rmt5			lth1			lth2			lth4			lth3			llfc			lsh1			lsh2			lsh3			lsh4			llmal			lcal			ltoe			lmt5			SBIKE			LBIKE			RBIKE			
		X1	Y1	Z1	X2	Y2	Z2	X3	Y3	Z3	X4	Y4	Z4	X5	Y5	Z5	X6	Y6	Z6	X7	Y7	Z7	X8	Y8	Z8	X9	Y9	Z9	X10	Y10	Z10	X11	Y11	Z11	X12	Y12	Z12	X13	Y13	Z13	X14	Y14	Z14	X15	Y15	Z15	X16	Y16	Z16	X17	Y17	Z17	X18	Y18	Z18	X19	Y19	Z19	X20	Y20	Z20	X21	Y21	Z21	X22	Y22	Z22	X23	Y23	Z23	X24	Y24	Z24	X25	Y25	Z25	X26	Y26	Z26	X27	Y27	Z27	X28	Y28	Z28	X29	Y29	Z29	X30	Y30	Z30	X31	Y31	Z31	X32	Y32	Z32	X33	Y33	Z33	X34	Y34	Z34	X35	Y35	Z35	X36	Y36	Z36	X37	Y37	Z37	X38	Y38	Z38	X39	Y39	Z39	X40	Y40	Z40	X41	Y41	Z41	X42	Y42	Z42	X43	Y43	Z43	X44	Y44	Z44	X45	Y45	Z45	X46	Y46	Z46	X47	Y47	Z47	
250	1.2500	511.000031	1341.166382	-126.981407	485.825867	1350.210693	-419.665985	434.137817	1407.435425	-259.634155	460.936554	1242.125732	-265.120239	587.972534	1074.096436	-33.010780	724.980164	848.539612	-66.453278	539.801819	1074.719360	-530.470520	716.230652	886.808350	-455.659546	-82.720741	1169.443237	-230.592133	92.447449	1185.310181	-403.485596	89.385132	1152.141235	-85.638199	88.699478	1131.303101	-384.066162	107.646034	1104.918091	-111.395538	-47.460552	1203.346069	-176.331650	-55.527378	1216.624023	-281.753052	21.326063	1040.104126	-55.043842	34.523735	1074.031860	-441.586304	110.409851	937.845825	-48.001408	166.642517	877.121582	-53.136856	222.371140	806.590393	-64.793388	206.672668	911.306946	-66.980225	258.918457	698.051941	-89.804115	192.342606	599.581726	-58.870258	157.683792	522.408691	-63.744583	112.895111	445.965668	-76.471222	199.500763	503.465912	-102.817741	45.102249	337.926819	-98.898094	98.439949	338.373779	-173.093246	-1.058135	325.244904	-158.941711	232.207230	184.849091	-130.423630	122.664383	206.654709	-69.500603	134.287125	993.743103	-441.461456	233.060837	984.143372	-438.705994	230.979019	1031.980835	-423.536713	299.611206	953.983032	-415.151672	392.298126	899.777588	-392.359070	332.624756	803.739868	-420.344788	303.075256	721.495178	-417.058350	271.325836	642.326172	-406.416412	355.302887	703.990417	-389.275208	225.167130	524.564209	-395.409393	173.709381	481.790863	-354.160797	450.211975	486.568359	-375.580536	345.104248	456.351532	-437.456390	-223.210205	893.344360	-249.531693	-12.159604	84.167496	-453.514923	-20.439312	81.033722	-53.744343	
251	1.2550	511.238739	1341.214478	-126.900864	485.976532	1350.844971	-419.890137	434.414734	1407.704834	-259.523956	461.235443	1242.333008	-265.221344	588.143250	1073.968872	-33.153690	725.038635	848.371338	-66.540291	540.899231	1075.472900	-530.263855	716.415283	886.980774	-455.428101	-82.257996	1169.483154	-230.446640	92.850563	1185.477295	-403.511383	89.929192	1152.101562	-85.578094	89.170273	1131.432739	-383.990997	108.231812	1105.067871	-111.383904	-47.028172	1203.441284	-176.208267	-55.116741	1216.653931	-281.663055	22.067879	1040.139893	-54.998905	34.975216	1074.057861	-441.376007	111.323029	938.243591	-48.183048	167.620789	877.718018	-53.392014	223.517303	807.200256	-64.989540	207.597046	911.943909	-67.177452	260.151550	698.580688	-89.905067	193.226166	600.403687	-59.041733	158.228806	523.387634	-63.903316	113.106247	447.158325	-76.612160	199.963943	504.172241	-103.010262	44.839153	339.392761	-99.029366	98.464241	339.778046	-173.091125	-1.428645	326.858429	-159.067291	231.205475	185.444870	-130.425949	121.821381	207.764969	-69.503693	134.665161	993.430664	-441.434875	232.541504	983.344116	-438.498016	231.401199	1031.464355	-423.388428	299.909576	953.385986	-415.063293	392.453888	898.685791	-392.139526	333.069183	801.563782	-419.943207	303.424133	720.225098	-416.978058	271.857758	640.894226	-406.266785	355.736176	702.727783	-389.179565	225.880280	522.958679	-395.348785	174.546860	479.991852	-354.092194	451.048798	485.762787	-375.628571	346.050751	455.146027	-437.506012	-223.143570	893.362915	-249.576981	-12.147228	84.179344	-453.538239	-20.440660	81.053337	-53.736626	
252	1.2600	511.493713	1341.279541	-126.774086	486.214508	1351.475708	-419.977081	434.706116	1407.909546	-259.383026	461.506775	1242.555542	-265.329956	588.322998	1073.786499	-33.382809	725.110168	848.230225	-66.599289	541.927917	1076.080933	-529.986572	716.544067	887.185425	-455.167358	-81.753464	1169.452148	-230.358841	93.055733	1185.568848	-403.507568	90.433052	1152.108154	-85.524048	89.623466	1131.571167	-384.039246	108.689400	1105.198364	-111.442650	-46.528706	1203.453979	-176.087051	-54.707577	1216.688843	-281.555084	22.932589	1040.062988	-54.838383	35.402493	1074.081665	-441.230469	112.365738	938.745178	-48.358955	168.664749	878.246521	-53.667366	224.603378	807.815247	-65.240898	208.514252	912.477905	-67.533188	261.278076	699.151978	-90.143074	194.008591	601.233765	-59.292587	158.692200	524.386169	-64.121605	113.225174	448.347809	-76.876717	200.377289	505.037628	-103.211868	44.418682	340.941010	-99.173080	97.884262	340.847656	-173.308945	-1.872456	328.450958	-159.211655	230.259583	186.059891	-130.388931	120.889236	208.772842	-69.650932	135.003372	993.095703	-441.431732	232.012100	982.531311	-438.289337	231.642090	1030.972412	-423.479340	300.147552	952.717102	-414.968109	392.592468	897.341919	-391.929413	333.404144	800.106934	-419.881073	303.820648	718.754700	-416.908691	272.319580	639.480164	-406.278595	356.132172	701.400879	-389.127106	226.577087	521.268494	-395.286865	175.380722	478.128571	-354.126587	451.911957	484.970886	-375.595306	346.931580	453.944672	-437.579865	-223.096222	893.380066	-249.628128	-12.137917	84.179054	-453.518372	-20.420662	81.052223	-53.725346	
253	1.2650	511.747253	1341.341919	-126.582481	486.625580	1352.072144	-419.845184	435.046478	1408.147339	-259.174866	461.818817	1242.853638	-265.440094	588.426514	1073.591919	-33.624058	725.163635	848.084351	-66.644905	542.762451	1076.594482	-529.806091	716.590820	887.338989	-454.950775	-81.232063	1169.474243	-230.183517	93.300041	1185.716919	-403.582397	90.917480	1152.157471	-85.529129	90.095718	1131.754761	-384.123444	109.167427	1105.411621	-111.545288	-46.093117	1203.548584	-175.994614	-54.286385	1216.730591	-281.463501	23.758774	1040.013672	-54.848461	35.804070	1074.058960	-441.079742	113.271301	939.156372	-48.626842	169.673248	878.788879	-54.102684	225.385178	808.481873	-65.588066	209.474777	912.984436	-67.915283	262.467407	699.757690	-90.447342	194.793472	602.161926	-59.511948	159.003845	525.506287	-64.388344	113.228531	449.529938	-77.117691	200.629456	505.909515	-103.402420	43.934807	342.443207	-99.298782	97.886620	342.361450	-173.202377	-2.393812	330.028015	-159.363037	229.267166	186.842041	-130.322556	119.996368	210.081787	-69.646103	135.302078	992.733826	-441.447723	231.472580	981.705017	-438.079926	232.014420	1030.381592	-423.425262	300.302277	951.944092	-414.987915	392.671692	896.034668	-391.764465	333.659973	798.658264	-419.849762	304.282867	717.201843	-416.905487	272.789917	637.952393	-406.285583	356.512665	699.942383	-389.070740	227.364700	519.573669	-395.320099	176.180450	476.173004	-354.074432	452.644135	484.102570	-375.643799	347.933563	452.700958	-437.541504	-223.061020	893.386353	-249.666840	-12.138252	84.182907	-453.531921	-20.422701	81.053085	-53.736988	
254	1.2700	512.051880	1341.437988	-126.357826	487.100677	1352.481323	-419.567444	435.374390	1408.391846	-258.914673	462.126526	1243.144897	-265.493103	588.541382	1073.417725	-33.868553	725.195984	847.925842	-66.738403	543.317566	1076.924683	-529.651978	716.606506	887.506653	-454.825195	-80.732574	1169.479492	-230.047806	93.588150	1185.879272	-403.661102	91.381958	1152.298340	-85.535156	90.474083	1131.942139	-384.206268	109.710922	1105.591431	-111.641960	-45.718067	1203.548340	-175.812744	-53.869156	1216.781372	-281.390472	24.598343	1039.952148	-54.853264	36.032536	1074.132080	-441.485870	114.292336	939.609009	-48.955208	170.689423	879.258362	-54.543453	226.680008	808.997375	-65.967590	210.387115	913.486023	-68.461510	263.618225	700.265442	-90.861107	195.444168	603.077026	-59.793259	159.385666	526.568420	-64.707817	113.226936	450.911285	-77.382759	200.897858	506.768280	-103.691078	43.365082	343.938385	-99.461052	97.225914	343.542938	-173.458786	-2.993277	331.596527	-159.513474	228.155731	187.575348	-130.362335	118.987152	211.241837	-69.789444	135.563782	992.342896	-441.478302	230.922882	980.865051	-437.869781	232.264236	1029.777222	-423.997803	300.346954	951.137451	-415.025757	392.705719	894.617798	-391.704163	333.910309	797.073792	-419.859222	304.692139	715.517090	-416.918182	273.283356	636.263733	-406.290741	356.875183	698.373657	-389.028107	228.063980	517.690002	-395.337097	177.150955	474.017059	-354.014526	453.420654	483.288879	-375.727081	348.861237	451.402435	-437.620911	-223.009048	893.420410	-249.726288	-12.122542	84.194252	-453.541992	-20.417141	81.068092	-53.730991	
